<svg width="53" height="40" viewBox="0 0 53 40" fill="none" xmlns="http://www.w3.org/2000/svg">
<mask id="path-1-outside-1_12_743" maskUnits="userSpaceOnUse" x="15.5" y="1.5" width="22" height="22" fill="black">
<rect fill="white" x="15.5" y="1.5" width="22" height="22"/>
<path fill-rule="evenodd" clip-rule="evenodd" d="M16.5 12.515C16.5 7.24712 20.71 2.5 26.52 2.5C32.2 2.5 36.5 7.15699 36.5 12.485C36.5 18.6642 31.46 22.5 26.5 22.5C24.86 22.5 23.04 22.0593 21.58 21.198C21.07 20.8876 20.64 20.6572 20.09 20.8375L18.07 21.4384C17.56 21.5986 17.1 21.198 17.25 20.6572L17.92 18.4139C18.03 18.1034 18.01 17.7729 17.85 17.5125C16.99 15.9301 16.5 14.1975 16.5 12.515ZM25.2 12.515C25.2 13.2261 25.77 13.7969 26.48 13.807C27.19 13.807 27.76 13.2261 27.76 12.525C27.76 11.814 27.19 11.2431 26.48 11.2431C25.78 11.2331 25.2 11.814 25.2 12.515ZM29.81 12.525C29.81 13.2261 30.38 13.807 31.09 13.807C31.8 13.807 32.37 13.2261 32.37 12.525C32.37 11.814 31.8 11.2431 31.09 11.2431C30.38 11.2431 29.81 11.814 29.81 12.525ZM21.87 13.807C21.17 13.807 20.59 13.2261 20.59 12.525C20.59 11.814 21.16 11.2431 21.87 11.2431C22.58 11.2431 23.15 11.814 23.15 12.525C23.15 13.2261 22.58 13.7969 21.87 13.807Z"/>
</mask>
<path fill-rule="evenodd" clip-rule="evenodd" d="M16.5 12.515C16.5 7.24712 20.71 2.5 26.52 2.5C32.2 2.5 36.5 7.15699 36.5 12.485C36.5 18.6642 31.46 22.5 26.5 22.5C24.86 22.5 23.04 22.0593 21.58 21.198C21.07 20.8876 20.64 20.6572 20.09 20.8375L18.07 21.4384C17.56 21.5986 17.1 21.198 17.25 20.6572L17.92 18.4139C18.03 18.1034 18.01 17.7729 17.85 17.5125C16.99 15.9301 16.5 14.1975 16.5 12.515ZM25.2 12.515C25.2 13.2261 25.77 13.7969 26.48 13.807C27.19 13.807 27.76 13.2261 27.76 12.525C27.76 11.814 27.19 11.2431 26.48 11.2431C25.78 11.2331 25.2 11.814 25.2 12.515ZM29.81 12.525C29.81 13.2261 30.38 13.807 31.09 13.807C31.8 13.807 32.37 13.2261 32.37 12.525C32.37 11.814 31.8 11.2431 31.09 11.2431C30.38 11.2431 29.81 11.814 29.81 12.525ZM21.87 13.807C21.17 13.807 20.59 13.2261 20.59 12.525C20.59 11.814 21.16 11.2431 21.87 11.2431C22.58 11.2431 23.15 11.814 23.15 12.525C23.15 13.2261 22.58 13.7969 21.87 13.807Z" fill="url(#paint0_linear_12_743)"/>
<path d="M21.58 21.198L21.06 22.0523L21.0719 22.0593L21.58 21.198ZM20.09 20.8375L20.3751 21.796L20.3884 21.7921L20.4015 21.7878L20.09 20.8375ZM18.07 21.4384L17.7849 20.4799L17.7775 20.4821L17.7703 20.4844L18.07 21.4384ZM17.25 20.6572L16.2918 20.3711L16.289 20.3805L16.2864 20.39L17.25 20.6572ZM17.92 18.4139L16.9774 18.0799L16.969 18.1036L16.9618 18.1277L17.92 18.4139ZM17.85 17.5125L16.9714 17.99L16.9841 18.0134L16.998 18.036L17.85 17.5125ZM26.48 13.807L26.4659 14.807H26.48V13.807ZM26.48 11.2431L26.4657 12.243L26.4728 12.2431H26.48V11.2431ZM21.87 13.807V14.8071L21.8841 14.8069L21.87 13.807ZM26.52 1.5C20.1234 1.5 15.5 6.72976 15.5 12.515H17.5C17.5 7.76448 21.2966 3.5 26.52 3.5V1.5ZM37.5 12.485C37.5 6.62845 32.7757 1.5 26.52 1.5V3.5C31.6243 3.5 35.5 7.68553 35.5 12.485H37.5ZM26.5 23.5C31.9331 23.5 37.5 19.2925 37.5 12.485H35.5C35.5 18.036 30.9869 21.5 26.5 21.5V23.5ZM21.0719 22.0593C22.7015 23.0207 24.7004 23.5 26.5 23.5V21.5C25.0196 21.5 23.3785 21.098 22.0881 20.3368L21.0719 22.0593ZM20.4015 21.7878C20.457 21.7696 20.489 21.7689 20.5559 21.7895C20.6617 21.8221 20.7989 21.8933 21.06 22.0522L22.1 20.3439C21.6147 20.0485 20.8101 19.5491 19.7785 19.8872L20.4015 21.7878ZM18.3551 22.3969L20.3751 21.796L19.8049 19.879L17.7849 20.4799L18.3551 22.3969ZM16.2864 20.39C16.117 21.0007 16.2834 21.6293 16.7341 22.0455C17.174 22.4515 17.7951 22.573 18.3697 22.3924L17.7703 20.4844C17.8349 20.4641 17.971 20.4654 18.0909 20.576C18.1478 20.6286 18.1889 20.6965 18.2085 20.7693C18.2285 20.8431 18.2206 20.8994 18.2136 20.9245L16.2864 20.39ZM16.9618 18.1277L16.2918 20.3711L18.2082 20.9434L18.8782 18.7L16.9618 18.1277ZM16.998 18.036C16.9879 18.0196 16.9884 18.0106 16.9889 18.0173C16.9895 18.025 16.9891 18.0469 16.9774 18.0799L18.8626 18.7478C19.057 18.199 19.0444 17.5461 18.702 16.989L16.998 18.036ZM15.5 12.515C15.5 14.3882 16.0439 16.2836 16.9714 17.99L18.7286 17.035C17.9361 15.5767 17.5 14.0069 17.5 12.515H15.5ZM26.4941 12.8071C26.3241 12.8047 26.2 12.6726 26.2 12.515H24.2C24.2 13.7796 25.2159 14.7892 26.4659 14.8069L26.4941 12.8071ZM26.76 12.525C26.76 12.6803 26.6312 12.807 26.48 12.807V14.807C27.7488 14.807 28.76 13.7719 28.76 12.525H26.76ZM26.48 12.2431C26.6363 12.2431 26.76 12.3648 26.76 12.525H28.76C28.76 11.2631 27.7437 10.2431 26.48 10.2431V12.2431ZM26.2 12.515C26.2 12.3619 26.3334 12.2411 26.4657 12.243L26.4943 10.2432C25.2266 10.2251 24.2 11.266 24.2 12.515H26.2ZM31.09 12.807C30.9388 12.807 30.81 12.6803 30.81 12.525H28.81C28.81 13.7719 29.8212 14.807 31.09 14.807V12.807ZM31.37 12.525C31.37 12.6803 31.2412 12.807 31.09 12.807V14.807C32.3588 14.807 33.37 13.7719 33.37 12.525H31.37ZM31.09 12.2431C31.2463 12.2431 31.37 12.3648 31.37 12.525H33.37C33.37 11.2631 32.3537 10.2431 31.09 10.2431V12.2431ZM30.81 12.525C30.81 12.3648 30.9337 12.2431 31.09 12.2431V10.2431C29.8263 10.2431 28.81 11.2631 28.81 12.525H30.81ZM19.59 12.525C19.59 13.777 20.6163 14.807 21.87 14.807V12.807C21.7237 12.807 21.59 12.6752 21.59 12.525H19.59ZM21.87 10.2431C20.6063 10.2431 19.59 11.2631 19.59 12.525H21.59C21.59 12.3648 21.7137 12.2431 21.87 12.2431V10.2431ZM24.15 12.525C24.15 11.2631 23.1337 10.2431 21.87 10.2431V12.2431C22.0263 12.2431 22.15 12.3648 22.15 12.525H24.15ZM21.8841 14.8069C23.129 14.7893 24.15 13.7846 24.15 12.525H22.15C22.15 12.6675 22.031 12.8046 21.8559 12.8071L21.8841 14.8069Z" fill="#14173C" mask="url(#path-1-outside-1_12_743)"/>
<path d="M18.1588 38.632C20.1148 38.632 21.6628 37.48 22.0348 35.752H20.7868C20.4628 36.82 19.4548 37.504 18.1828 37.504C16.4308 37.504 15.2788 36.184 15.2788 34.156C15.2788 32.128 16.4308 30.808 18.1828 30.808C19.4428 30.808 20.4148 31.492 20.7388 32.62H21.9988C21.6748 30.844 20.1748 29.68 18.2188 29.68C15.7348 29.68 14.0428 31.492 14.0428 34.168C14.0428 36.856 15.6868 38.632 18.1588 38.632ZM24.3542 38.488V35.296C24.3542 34.288 24.9422 33.496 26.0342 33.496C26.8742 33.496 27.4382 33.976 27.4382 35.164V38.5H28.5662V34.912C28.5662 33.412 27.8462 32.464 26.3462 32.464C25.4342 32.464 24.7262 32.896 24.3542 33.532V29.668H23.2262V38.488H24.3542ZM31.8445 38.644C32.7925 38.644 33.5965 38.224 33.8965 37.552L34.0165 38.5H34.9765V34.816C34.9765 33.232 33.9925 32.464 32.5405 32.464C31.0285 32.464 30.0205 33.268 30.0205 34.492H31.0045C31.0045 33.784 31.5445 33.364 32.4925 33.364C33.2845 33.364 33.8725 33.712 33.8725 34.696V34.864L32.0245 35.008C30.6445 35.116 29.8405 35.788 29.8405 36.868C29.8405 37.936 30.5845 38.644 31.8445 38.644ZM32.1685 37.768C31.4365 37.768 30.9805 37.456 30.9805 36.832C30.9805 36.256 31.3885 35.872 32.3845 35.776L33.8845 35.656V35.968C33.8845 37.072 33.2365 37.768 32.1685 37.768ZM38.1009 38.5V33.58H39.2529V32.632H38.1009V30.796H36.9729V32.632H35.8209V33.58H36.9729V38.5H38.1009Z" fill="white"/>
<defs>
<linearGradient id="paint0_linear_12_743" x1="22.9" y1="1.6999" x2="35.5" y2="26.8999" gradientUnits="userSpaceOnUse">
<stop stop-color="white"/>
<stop offset="0.2" stop-color="#D6D6D6"/>
<stop offset="0.4" stop-color="white"/>
<stop offset="0.6" stop-color="#EBEBEB"/>
<stop offset="0.8" stop-color="#DBDBDB"/>
<stop offset="1" stop-color="#F9F9F9"/>
</linearGradient>
</defs>
</svg>
