<svg width="53" height="42" viewBox="0 0 53 42" fill="none" xmlns="http://www.w3.org/2000/svg">
<mask id="path-1-outside-1_43_2332" maskUnits="userSpaceOnUse" x="13.5" y="2.5" width="25" height="22" fill="black">
<rect fill="white" x="13.5" y="2.5" width="25" height="22"/>
<path fill-rule="evenodd" clip-rule="evenodd" d="M20.25 13.5C20.25 12.3968 21.1716 11.5 22.3036 11.5H29.6964C30.8292 11.5 31.75 12.3968 31.75 13.5C31.75 14.6032 30.8292 15.5 29.6964 15.5H22.3036C21.1716 15.5 20.25 14.6032 20.25 13.5ZM21.8929 13.5C21.8929 14.1616 22.4457 14.7 23.125 14.7C23.8043 14.7 24.3571 14.1616 24.3571 13.5C24.3571 12.8384 23.8043 12.3 23.125 12.3C22.4457 12.3 21.8929 12.8384 21.8929 13.5ZM27.6429 13.5C27.6429 14.1616 28.1957 14.7 28.875 14.7C29.5543 14.7 30.1071 14.1616 30.1071 13.5C30.1071 12.8384 29.5543 12.3 28.875 12.3C28.1957 12.3 27.6429 12.8384 27.6429 13.5ZM36.6786 5.8264V12.3736C37.155 12.54 37.5 12.9792 37.5 13.5V16.7C37.5 17.3616 36.9472 17.9 36.2679 17.9C35.881 17.9 35.5401 17.7216 35.3134 17.4496C34.6086 18.6664 33.2844 19.5 31.75 19.5H20.25C18.7156 19.5 17.3914 18.6664 16.6866 17.4496C16.4599 17.7224 16.1182 17.9 15.7321 17.9C15.0528 17.9 14.5 17.3616 14.5 16.7V13.5C14.5 12.9792 14.845 12.5392 15.3214 12.3736V5.8264C14.845 5.66 14.5 5.2208 14.5 4.7C14.5 4.0384 15.0528 3.5 15.7321 3.5C16.4115 3.5 16.9643 4.0384 16.9643 4.7C16.9643 5.22 16.6193 5.66 16.1429 5.8264V12.3736C16.3098 12.4304 16.4622 12.5215 16.5897 12.6408C17.8416 8.74 21.5865 5.9 26 5.9C30.4135 5.9 34.1584 8.74 35.4103 12.6408C35.5378 12.5215 35.6902 12.4304 35.8571 12.3736V5.8264C35.3807 5.66 35.0357 5.2208 35.0357 4.7C35.0357 4.0384 35.5885 3.5 36.2679 3.5C36.9472 3.5 37.5 4.0384 37.5 4.7C37.5 5.2208 37.155 5.6608 36.6786 5.8264ZM22.3036 16.3H29.6964C31.2818 16.3 32.5714 15.044 32.5714 13.5C32.5714 11.956 31.2818 10.7 29.6964 10.7H22.3036C20.7182 10.7 19.4286 11.956 19.4286 13.5C19.4286 15.044 20.7182 16.3 22.3036 16.3ZM30 23C31.6569 23 33 21.6569 33 20H19C19 21.6569 20.3431 23 22 23H30Z"/>
</mask>
<path fill-rule="evenodd" clip-rule="evenodd" d="M20.25 13.5C20.25 12.3968 21.1716 11.5 22.3036 11.5H29.6964C30.8292 11.5 31.75 12.3968 31.75 13.5C31.75 14.6032 30.8292 15.5 29.6964 15.5H22.3036C21.1716 15.5 20.25 14.6032 20.25 13.5ZM21.8929 13.5C21.8929 14.1616 22.4457 14.7 23.125 14.7C23.8043 14.7 24.3571 14.1616 24.3571 13.5C24.3571 12.8384 23.8043 12.3 23.125 12.3C22.4457 12.3 21.8929 12.8384 21.8929 13.5ZM27.6429 13.5C27.6429 14.1616 28.1957 14.7 28.875 14.7C29.5543 14.7 30.1071 14.1616 30.1071 13.5C30.1071 12.8384 29.5543 12.3 28.875 12.3C28.1957 12.3 27.6429 12.8384 27.6429 13.5ZM36.6786 5.8264V12.3736C37.155 12.54 37.5 12.9792 37.5 13.5V16.7C37.5 17.3616 36.9472 17.9 36.2679 17.9C35.881 17.9 35.5401 17.7216 35.3134 17.4496C34.6086 18.6664 33.2844 19.5 31.75 19.5H20.25C18.7156 19.5 17.3914 18.6664 16.6866 17.4496C16.4599 17.7224 16.1182 17.9 15.7321 17.9C15.0528 17.9 14.5 17.3616 14.5 16.7V13.5C14.5 12.9792 14.845 12.5392 15.3214 12.3736V5.8264C14.845 5.66 14.5 5.2208 14.5 4.7C14.5 4.0384 15.0528 3.5 15.7321 3.5C16.4115 3.5 16.9643 4.0384 16.9643 4.7C16.9643 5.22 16.6193 5.66 16.1429 5.8264V12.3736C16.3098 12.4304 16.4622 12.5215 16.5897 12.6408C17.8416 8.74 21.5865 5.9 26 5.9C30.4135 5.9 34.1584 8.74 35.4103 12.6408C35.5378 12.5215 35.6902 12.4304 35.8571 12.3736V5.8264C35.3807 5.66 35.0357 5.2208 35.0357 4.7C35.0357 4.0384 35.5885 3.5 36.2679 3.5C36.9472 3.5 37.5 4.0384 37.5 4.7C37.5 5.2208 37.155 5.6608 36.6786 5.8264ZM22.3036 16.3H29.6964C31.2818 16.3 32.5714 15.044 32.5714 13.5C32.5714 11.956 31.2818 10.7 29.6964 10.7H22.3036C20.7182 10.7 19.4286 11.956 19.4286 13.5C19.4286 15.044 20.7182 16.3 22.3036 16.3ZM30 23C31.6569 23 33 21.6569 33 20H19C19 21.6569 20.3431 23 22 23H30Z" fill="url(#paint0_linear_43_2332)"/>
<path d="M36.6786 12.3736H35.6786V13.0836L36.3488 13.3177L36.6786 12.3736ZM36.6786 5.8264L36.3503 4.88183L35.6786 5.1153V5.8264H36.6786ZM35.3134 17.4496L36.0815 16.8093L35.1653 15.7101L34.448 16.9484L35.3134 17.4496ZM16.6866 17.4496L17.552 16.9484L16.8336 15.7082L15.9176 16.8104L16.6866 17.4496ZM15.3214 12.3736L15.6497 13.3182L16.3214 13.0847V12.3736H15.3214ZM15.3214 5.8264H16.3214V5.11643L15.6512 4.88233L15.3214 5.8264ZM16.1429 5.8264L15.8131 4.88233L15.1429 5.11643V5.8264H16.1429ZM16.1429 12.3736H15.1429V13.0896L15.8206 13.3203L16.1429 12.3736ZM16.5897 12.6408L15.9067 13.3712L17.0596 14.4492L17.5419 12.9464L16.5897 12.6408ZM35.4103 12.6408L34.4581 12.9464L34.9404 14.4492L36.0933 13.3712L35.4103 12.6408ZM35.8571 12.3736L36.1794 13.3203L36.8571 13.0896V12.3736H35.8571ZM35.8571 5.8264H36.8571V5.11643L36.1869 4.88233L35.8571 5.8264ZM33 20H34V19H33V20ZM19 20V19H18V20H19ZM22.3036 10.5C20.6447 10.5 19.25 11.8195 19.25 13.5H21.25C21.25 12.9741 21.6986 12.5 22.3036 12.5V10.5ZM29.6964 10.5H22.3036V12.5H29.6964V10.5ZM32.75 13.5C32.75 11.8198 31.3564 10.5 29.6964 10.5V12.5C30.302 12.5 30.75 12.9738 30.75 13.5H32.75ZM29.6964 16.5C31.3564 16.5 32.75 15.1802 32.75 13.5H30.75C30.75 14.0262 30.302 14.5 29.6964 14.5V16.5ZM22.3036 16.5H29.6964V14.5H22.3036V16.5ZM19.25 13.5C19.25 15.1805 20.6447 16.5 22.3036 16.5V14.5C21.6986 14.5 21.25 14.0259 21.25 13.5H19.25ZM23.125 13.7C22.9729 13.7 22.8929 13.5846 22.8929 13.5H20.8929C20.8929 14.7386 21.9185 15.7 23.125 15.7V13.7ZM23.3571 13.5C23.3571 13.5846 23.2771 13.7 23.125 13.7V15.7C24.3315 15.7 25.3571 14.7386 25.3571 13.5H23.3571ZM23.125 13.3C23.2771 13.3 23.3571 13.4154 23.3571 13.5H25.3571C25.3571 12.2614 24.3315 11.3 23.125 11.3V13.3ZM22.8929 13.5C22.8929 13.4154 22.9729 13.3 23.125 13.3V11.3C21.9185 11.3 20.8929 12.2614 20.8929 13.5H22.8929ZM28.875 13.7C28.7229 13.7 28.6429 13.5846 28.6429 13.5H26.6429C26.6429 14.7386 27.6685 15.7 28.875 15.7V13.7ZM29.1071 13.5C29.1071 13.5846 29.0271 13.7 28.875 13.7V15.7C30.0815 15.7 31.1071 14.7386 31.1071 13.5H29.1071ZM28.875 13.3C29.0271 13.3 29.1071 13.4154 29.1071 13.5H31.1071C31.1071 12.2614 30.0815 11.3 28.875 11.3V13.3ZM28.6429 13.5C28.6429 13.4154 28.7229 13.3 28.875 13.3V11.3C27.6685 11.3 26.6429 12.2614 26.6429 13.5H28.6429ZM37.6786 12.3736V5.8264H35.6786V12.3736H37.6786ZM38.5 13.5C38.5 12.5171 37.8502 11.7236 37.0083 11.4295L36.3488 13.3177C36.4598 13.3564 36.5 13.4413 36.5 13.5H38.5ZM38.5 16.7V13.5H36.5V16.7H38.5ZM36.2679 18.9C37.4744 18.9 38.5 17.9386 38.5 16.7H36.5C36.5 16.7846 36.42 16.9 36.2679 16.9V18.9ZM34.5452 18.0899C34.9486 18.5738 35.564 18.9 36.2679 18.9V16.9C36.1979 16.9 36.1316 16.8694 36.0815 16.8093L34.5452 18.0899ZM31.75 20.5C33.6567 20.5 35.303 19.4626 36.1787 17.9508L34.448 16.9484C33.9141 17.8702 32.9121 18.5 31.75 18.5V20.5ZM20.25 20.5H31.75V18.5H20.25V20.5ZM15.8213 17.9508C16.697 19.4626 18.3433 20.5 20.25 20.5V18.5C19.0879 18.5 18.0859 17.8702 17.552 16.9484L15.8213 17.9508ZM15.7321 18.9C16.4336 18.9 17.0509 18.5759 17.4557 18.0888L15.9176 16.8104C15.869 16.8689 15.8029 16.9 15.7321 16.9V18.9ZM13.5 16.7C13.5 17.9386 14.5256 18.9 15.7321 18.9V16.9C15.58 16.9 15.5 16.7846 15.5 16.7H13.5ZM13.5 13.5V16.7H15.5V13.5H13.5ZM14.9931 11.429C14.149 11.7224 13.5 12.5181 13.5 13.5H15.5C15.5 13.4403 15.541 13.356 15.6497 13.3182L14.9931 11.429ZM14.3214 5.8264V12.3736H16.3214V5.8264H14.3214ZM13.5 4.7C13.5 5.68287 14.1498 6.47644 14.9917 6.77047L15.6512 4.88233C15.5402 4.84356 15.5 4.75873 15.5 4.7H13.5ZM15.7321 2.5C14.5256 2.5 13.5 3.46136 13.5 4.7H15.5C15.5 4.61544 15.58 4.5 15.7321 4.5V2.5ZM17.9643 4.7C17.9643 3.46136 16.9387 2.5 15.7321 2.5V4.5C15.8843 4.5 15.9643 4.61544 15.9643 4.7H17.9643ZM16.4726 6.77047C17.3148 6.4763 17.9643 5.68168 17.9643 4.7H15.9643C15.9643 4.75832 15.9237 4.8437 15.8131 4.88233L16.4726 6.77047ZM17.1429 12.3736V5.8264H15.1429V12.3736H17.1429ZM17.2727 11.9104C17.0406 11.6933 16.7649 11.529 16.4651 11.4269L15.8206 13.3203C15.8547 13.3318 15.8838 13.3498 15.9067 13.3712L17.2727 11.9104ZM26 4.9C21.153 4.9 17.0225 8.01961 15.6375 12.3352L17.5419 12.9464C18.6606 9.46039 22.0199 6.9 26 6.9V4.9ZM36.3625 12.3352C34.9775 8.01961 30.847 4.9 26 4.9V6.9C29.9801 6.9 33.3394 9.46039 34.4581 12.9464L36.3625 12.3352ZM35.5349 11.4269C35.2351 11.529 34.9594 11.6933 34.7273 11.9104L36.0933 13.3712C36.1162 13.3498 36.1453 13.3318 36.1794 13.3203L35.5349 11.4269ZM34.8571 5.8264V12.3736H36.8571V5.8264H34.8571ZM34.0357 4.7C34.0357 5.68287 34.6855 6.47644 35.5274 6.77047L36.1869 4.88233C36.0759 4.84356 36.0357 4.75873 36.0357 4.7H34.0357ZM36.2679 2.5C35.0613 2.5 34.0357 3.46136 34.0357 4.7H36.0357C36.0357 4.61544 36.1157 4.5 36.2679 4.5V2.5ZM38.5 4.7C38.5 3.46136 37.4744 2.5 36.2679 2.5V4.5C36.42 4.5 36.5 4.61544 36.5 4.7H38.5ZM37.0069 6.77097C37.851 6.47755 38.5 5.68186 38.5 4.7H36.5C36.5 4.75974 36.459 4.84405 36.3503 4.88183L37.0069 6.77097ZM29.6964 15.3H22.3036V17.3H29.6964V15.3ZM31.5714 13.5C31.5714 14.467 30.7546 15.3 29.6964 15.3V17.3C31.809 17.3 33.5714 15.621 33.5714 13.5H31.5714ZM29.6964 11.7C30.7546 11.7 31.5714 12.533 31.5714 13.5H33.5714C33.5714 11.379 31.809 9.7 29.6964 9.7V11.7ZM22.3036 11.7H29.6964V9.7H22.3036V11.7ZM20.4286 13.5C20.4286 12.533 21.2454 11.7 22.3036 11.7V9.7C20.191 9.7 18.4286 11.379 18.4286 13.5H20.4286ZM22.3036 15.3C21.2454 15.3 20.4286 14.467 20.4286 13.5H18.4286C18.4286 15.621 20.191 17.3 22.3036 17.3V15.3ZM32 20C32 21.1046 31.1046 22 30 22V24C32.2091 24 34 22.2091 34 20H32ZM19 21H33V19H19V21ZM22 22C20.8954 22 20 21.1046 20 20H18C18 22.2091 19.7909 24 22 24V22ZM30 22H22V24H30V22Z" fill="#14173C" mask="url(#path-1-outside-1_43_2332)"/>
<path d="M12.632 38.5V37.408H8.51603V34.66H12.224V33.616H8.51603V30.904H12.632V29.824H7.34003V38.5H12.632ZM14.7441 38.5L16.1841 36.352L17.6481 38.5H18.9561L16.9521 35.596L18.9921 32.632H17.7081L16.2561 34.816L14.7681 32.632H13.4601L15.5001 35.596L13.4481 38.5H14.7441ZM19.9332 41.128H21.0612V37.54C21.4452 38.26 22.2252 38.656 23.1612 38.656C24.9012 38.656 25.8852 37.312 25.8852 35.524C25.8852 33.724 24.8412 32.464 23.1612 32.464C22.2252 32.464 21.4332 32.884 21.0372 33.688L20.9532 32.632H19.9332V41.128ZM21.0732 35.572C21.0732 34.348 21.7692 33.496 22.9212 33.496C24.0732 33.496 24.7572 34.36 24.7572 35.572C24.7572 36.772 24.0732 37.636 22.9212 37.636C21.7692 37.636 21.0732 36.772 21.0732 35.572ZM29.6605 38.644C31.1125 38.644 32.0965 37.936 32.3845 36.676H31.3285C31.1365 37.348 30.5605 37.708 29.6845 37.708C28.5685 37.708 27.9205 37.024 27.8365 35.788L32.3725 35.776V35.356C32.3725 33.616 31.2805 32.464 29.6125 32.464C27.9085 32.464 26.7445 33.736 26.7445 35.572C26.7445 37.396 27.9325 38.644 29.6605 38.644ZM29.6125 33.412C30.6085 33.412 31.2445 34.06 31.2445 35.032H27.8605C28.0045 34 28.6285 33.412 29.6125 33.412ZM36.9924 32.584C36.7644 32.536 36.5964 32.512 36.3924 32.512C35.5884 32.512 35.0004 32.92 34.7604 33.532L34.6884 32.644H33.6324V38.5H34.7604V35.392C34.7604 34.264 35.4204 33.616 36.4884 33.616H36.9924V32.584ZM39.9408 38.5V33.58H41.0928V32.632H39.9408V30.796H38.8128V32.632H37.6608V33.58H38.8128V38.5H39.9408ZM41.6251 36.796C41.6251 37.912 42.5011 38.644 43.8811 38.644C45.2731 38.644 46.2331 37.936 46.2331 36.82C46.2331 35.944 45.7411 35.488 44.7451 35.248L43.7131 34.996C43.1371 34.852 42.8491 34.588 42.8491 34.192C42.8491 33.652 43.2451 33.34 43.9531 33.34C44.6371 33.34 45.0331 33.712 45.0571 34.3H46.1371C46.1131 33.184 45.2731 32.464 43.9891 32.464C42.6931 32.464 41.7811 33.148 41.7811 34.228C41.7811 35.092 42.2731 35.608 43.3171 35.86L44.3491 36.1C44.9611 36.256 45.1531 36.496 45.1531 36.892C45.1531 37.432 44.6971 37.756 43.9051 37.756C43.1611 37.756 42.7051 37.396 42.7051 36.796H41.6251Z" fill="white"/>
<defs>
<linearGradient id="paint0_linear_43_2332" x1="21.8601" y1="2.7199" x2="32.8963" y2="28.754" gradientUnits="userSpaceOnUse">
<stop stop-color="white"/>
<stop offset="0.2" stop-color="#D6D6D6"/>
<stop offset="0.4" stop-color="white"/>
<stop offset="0.6" stop-color="#EBEBEB"/>
<stop offset="0.8" stop-color="#DBDBDB"/>
<stop offset="1" stop-color="#F9F9F9"/>
</linearGradient>
</defs>
</svg>
