<svg width="53" height="42" viewBox="0 0 53 42" fill="none" xmlns="http://www.w3.org/2000/svg">
<mask id="path-1-outside-1_43_2208" maskUnits="userSpaceOnUse" x="15.9999" y="1.50011" width="21" height="22" fill="black">
<rect fill="white" x="15.9999" y="1.50011" width="21" height="22"/>
<path fill-rule="evenodd" clip-rule="evenodd" d="M34.9022 14.0801C35.2599 14.2701 35.5358 14.5701 35.73 14.8701C36.1081 15.4901 36.0775 16.2501 35.7096 16.9201L34.9942 18.1201C34.6161 18.7601 33.9109 19.1601 33.1853 19.1601C32.8277 19.1601 32.4291 19.0601 32.1021 18.8601C31.8364 18.6901 31.5298 18.6301 31.2027 18.6301C30.191 18.6301 29.3428 19.4601 29.3121 20.4501C29.3121 21.6001 28.3719 22.5001 27.1967 22.5001H25.8068C24.6213 22.5001 23.6811 21.6001 23.6811 20.4501C23.6607 19.4601 22.8125 18.6301 21.8007 18.6301C21.4635 18.6301 21.1569 18.6901 20.9014 18.8601C20.5744 19.0601 20.1656 19.1601 19.8181 19.1601C19.0823 19.1601 18.3772 18.7601 17.999 18.1201L17.2939 16.9201C16.9158 16.2701 16.8953 15.4901 17.2735 14.8701C17.437 14.5701 17.7436 14.2701 18.091 14.0801C18.3772 13.9401 18.5611 13.7101 18.7349 13.4401C19.2458 12.5801 18.9392 11.4501 18.0706 10.9401C17.0588 10.3701 16.7318 9.10011 17.3143 8.11011L17.999 6.93011C18.5918 5.94011 19.859 5.59011 20.881 6.17011C21.7701 6.65011 22.9249 6.33011 23.4461 5.48011C23.6096 5.20011 23.7016 4.90011 23.6811 4.60011C23.6607 4.21011 23.7731 3.84011 23.9673 3.54011C24.3454 2.92011 25.0301 2.52011 25.7761 2.50011H27.2171C27.9734 2.50011 28.6581 2.92011 29.0362 3.54011C29.2201 3.84011 29.3428 4.21011 29.3121 4.60011C29.2917 4.90011 29.3837 5.20011 29.5472 5.48011C30.0684 6.33011 31.2232 6.65011 32.1225 6.17011C33.1342 5.59011 34.4117 5.94011 34.9942 6.93011L35.6789 8.11011C36.2716 9.10011 35.9446 10.3701 34.9227 10.9401C34.054 11.4501 33.7474 12.5801 34.2686 13.4401C34.4321 13.7101 34.6161 13.9401 34.9022 14.0801ZM23.6096 12.5101C23.6096 14.0801 24.9075 15.3301 26.512 15.3301C28.1164 15.3301 29.3837 14.0801 29.3837 12.5101C29.3837 10.9401 28.1164 9.68011 26.512 9.68011C24.9075 9.68011 23.6096 10.9401 23.6096 12.5101Z"/>
</mask>
<path fill-rule="evenodd" clip-rule="evenodd" d="M34.9022 14.0801C35.2599 14.2701 35.5358 14.5701 35.73 14.8701C36.1081 15.4901 36.0775 16.2501 35.7096 16.9201L34.9942 18.1201C34.6161 18.7601 33.9109 19.1601 33.1853 19.1601C32.8277 19.1601 32.4291 19.0601 32.1021 18.8601C31.8364 18.6901 31.5298 18.6301 31.2027 18.6301C30.191 18.6301 29.3428 19.4601 29.3121 20.4501C29.3121 21.6001 28.3719 22.5001 27.1967 22.5001H25.8068C24.6213 22.5001 23.6811 21.6001 23.6811 20.4501C23.6607 19.4601 22.8125 18.6301 21.8007 18.6301C21.4635 18.6301 21.1569 18.6901 20.9014 18.8601C20.5744 19.0601 20.1656 19.1601 19.8181 19.1601C19.0823 19.1601 18.3772 18.7601 17.999 18.1201L17.2939 16.9201C16.9158 16.2701 16.8953 15.4901 17.2735 14.8701C17.437 14.5701 17.7436 14.2701 18.091 14.0801C18.3772 13.9401 18.5611 13.7101 18.7349 13.4401C19.2458 12.5801 18.9392 11.4501 18.0706 10.9401C17.0588 10.3701 16.7318 9.10011 17.3143 8.11011L17.999 6.93011C18.5918 5.94011 19.859 5.59011 20.881 6.17011C21.7701 6.65011 22.9249 6.33011 23.4461 5.48011C23.6096 5.20011 23.7016 4.90011 23.6811 4.60011C23.6607 4.21011 23.7731 3.84011 23.9673 3.54011C24.3454 2.92011 25.0301 2.52011 25.7761 2.50011H27.2171C27.9734 2.50011 28.6581 2.92011 29.0362 3.54011C29.2201 3.84011 29.3428 4.21011 29.3121 4.60011C29.2917 4.90011 29.3837 5.20011 29.5472 5.48011C30.0684 6.33011 31.2232 6.65011 32.1225 6.17011C33.1342 5.59011 34.4117 5.94011 34.9942 6.93011L35.6789 8.11011C36.2716 9.10011 35.9446 10.3701 34.9227 10.9401C34.054 11.4501 33.7474 12.5801 34.2686 13.4401C34.4321 13.7101 34.6161 13.9401 34.9022 14.0801ZM23.6096 12.5101C23.6096 14.0801 24.9075 15.3301 26.512 15.3301C28.1164 15.3301 29.3837 14.0801 29.3837 12.5101C29.3837 10.9401 28.1164 9.68011 26.512 9.68011C24.9075 9.68011 23.6096 10.9401 23.6096 12.5101Z" fill="url(#paint0_linear_43_2208)"/>
<path d="M35.73 14.8701L36.5838 14.3494L36.5768 14.338L36.5695 14.3267L35.73 14.8701ZM34.9022 14.0801L35.3713 13.197L35.3566 13.1892L35.3417 13.1819L34.9022 14.0801ZM35.7096 16.9201L36.5685 17.4322L36.5776 17.417L36.5861 17.4014L35.7096 16.9201ZM34.9942 18.1201L34.1352 17.608L34.1332 17.6114L34.9942 18.1201ZM32.1021 18.8601L31.5631 19.7025L31.5717 19.7079L31.5803 19.7132L32.1021 18.8601ZM29.3121 20.4501L28.3126 20.4192L28.3121 20.4346V20.4501H29.3121ZM23.6811 20.4501H24.6811V20.4398L24.6809 20.4295L23.6811 20.4501ZM20.9014 18.8601L21.4231 19.7132L21.4395 19.7032L21.4554 19.6926L20.9014 18.8601ZM17.999 18.1201L17.1369 18.6267L17.1381 18.6288L17.999 18.1201ZM17.2939 16.9201L16.4295 17.4229L16.4317 17.4267L17.2939 16.9201ZM17.2735 14.8701L18.1272 15.3908L18.1399 15.37L18.1515 15.3487L17.2735 14.8701ZM18.091 14.0801L17.6515 13.1819L17.6312 13.1918L17.6113 13.2027L18.091 14.0801ZM18.7349 13.4401L19.5758 13.9812L19.5855 13.9662L19.5946 13.9509L18.7349 13.4401ZM18.0706 10.9401L18.5769 10.0777L18.5692 10.0732L18.5614 10.0689L18.0706 10.9401ZM17.3143 8.11011L18.1762 8.61724L18.1793 8.612L17.3143 8.11011ZM17.999 6.93011L17.141 6.41637L17.1341 6.42822L17.999 6.93011ZM20.881 6.17011L20.3874 7.0398L20.3966 7.04503L20.4059 7.05006L20.881 6.17011ZM23.4461 5.48011L24.2986 6.00284L24.3042 5.99367L24.3096 5.98439L23.4461 5.48011ZM23.6811 4.60011L22.6825 4.65244L22.6829 4.66026L22.6834 4.66808L23.6811 4.60011ZM23.9673 3.54011L24.8068 4.08347L24.8141 4.07222L24.821 4.06079L23.9673 3.54011ZM25.7761 2.50011V1.50011H25.7627L25.7493 1.50047L25.7761 2.50011ZM29.0362 3.54011L28.1824 4.06079L28.1837 4.06284L29.0362 3.54011ZM29.3121 4.60011L28.3151 4.52173L28.3144 4.53213L29.3121 4.60011ZM29.5472 5.48011L28.6836 5.98439L28.689 5.99367L28.6947 6.00284L29.5472 5.48011ZM32.1225 6.17011L32.5934 7.05231L32.6067 7.04519L32.6198 7.03766L32.1225 6.17011ZM34.9942 6.93011L35.8591 6.42821L35.8561 6.42298L34.9942 6.93011ZM35.6789 8.11011L34.8139 8.61204L34.8209 8.6238L35.6789 8.11011ZM34.9227 10.9401L34.4356 10.0668L34.4259 10.0722L34.4164 10.0777L34.9227 10.9401ZM34.2686 13.4401L35.124 12.9221L35.1238 12.9218L34.2686 13.4401ZM36.5695 14.3267C36.3123 13.9294 35.921 13.4889 35.3713 13.197L34.4331 14.9632C34.5988 15.0513 34.7593 15.2108 34.8905 15.4135L36.5695 14.3267ZM36.5861 17.4014C37.095 16.4747 37.1801 15.3272 36.5838 14.3494L34.8763 15.3908C35.0362 15.6531 35.0599 16.0256 34.833 16.4388L36.5861 17.4014ZM35.8532 18.6322L36.5685 17.4322L34.8506 16.408L34.1352 17.608L35.8532 18.6322ZM33.1853 20.1601C34.267 20.1601 35.2984 19.5712 35.8552 18.6288L34.1332 17.6114C33.9338 17.949 33.5548 18.1601 33.1853 18.1601V20.1601ZM31.5803 19.7132C32.0769 20.0169 32.6588 20.1601 33.1853 20.1601V18.1601C32.9965 18.1601 32.7812 18.1033 32.6238 18.007L31.5803 19.7132ZM31.2027 19.6301C31.4118 19.6301 31.5104 19.6687 31.5631 19.7025L32.641 18.0178C32.1623 17.7115 31.6477 17.6301 31.2027 17.6301V19.6301ZM30.3116 20.4811C30.3255 20.0329 30.7294 19.6301 31.2027 19.6301V17.6301C29.6526 17.6301 28.36 18.8873 28.3126 20.4192L30.3116 20.4811ZM27.1967 23.5001C28.8907 23.5001 30.3121 22.1853 30.3121 20.4501H28.3121C28.3121 21.0149 27.8531 21.5001 27.1967 21.5001V23.5001ZM25.8068 23.5001H27.1967V21.5001H25.8068V23.5001ZM22.6811 20.4501C22.6811 22.1884 24.1057 23.5001 25.8068 23.5001V21.5001C25.137 21.5001 24.6811 21.0119 24.6811 20.4501H22.6811ZM21.8007 19.6301C22.2763 19.6301 22.6723 20.0329 22.6813 20.4707L24.6809 20.4295C24.6491 18.8873 23.3487 17.6301 21.8007 17.6301V19.6301ZM21.4554 19.6926C21.4864 19.672 21.5729 19.6301 21.8007 19.6301V17.6301C21.3541 17.6301 20.8274 17.7082 20.3474 18.0276L21.4554 19.6926ZM19.8181 20.1601C20.332 20.1601 20.9246 20.0181 21.4231 19.7132L20.3797 18.007C20.2242 18.1021 19.9992 18.1601 19.8181 18.1601V20.1601ZM17.1381 18.6288C17.6962 19.5735 18.7289 20.1601 19.8181 20.1601V18.1601C19.4358 18.1601 19.0581 17.9467 18.86 17.6114L17.1381 18.6288ZM16.4317 17.4267L17.1369 18.6267L18.8612 17.6135L18.1561 16.4135L16.4317 17.4267ZM16.4197 14.3494C15.8308 15.315 15.8866 16.4897 16.4295 17.4229L18.1583 16.4173C17.9449 16.0505 17.9598 15.6652 18.1272 15.3908L16.4197 14.3494ZM17.6113 13.2027C17.1157 13.4737 16.6611 13.904 16.3954 14.3915L18.1515 15.3487C18.2128 15.2362 18.3714 15.0665 18.5708 14.9575L17.6113 13.2027ZM17.8939 12.899C17.7473 13.1268 17.6859 13.1651 17.6515 13.1819L18.5305 14.9784C19.0685 14.7151 19.3749 14.2934 19.5758 13.9812L17.8939 12.899ZM17.5643 11.8025C17.9704 12.0409 18.0939 12.5611 17.8752 12.9293L19.5946 13.9509C20.3978 12.5991 19.9081 10.8593 18.5769 10.0777L17.5643 11.8025ZM16.4525 7.60298C15.5906 9.0677 16.0728 10.9623 17.5797 11.8114L18.5614 10.0689C18.0449 9.77788 17.873 9.13252 18.1762 8.61723L16.4525 7.60298ZM17.1341 6.42822L16.4494 7.60822L18.1793 8.612L18.864 7.432L17.1341 6.42822ZM21.3746 5.30041C19.8739 4.44875 18.0092 4.96652 17.1411 6.41642L18.857 7.4438C19.1744 6.9137 19.8441 6.73146 20.3874 7.0398L21.3746 5.30041ZM22.5936 4.95738C22.3477 5.35831 21.7743 5.51596 21.356 5.29015L20.4059 7.05006C21.7658 7.78425 23.502 7.3019 24.2986 6.00284L22.5936 4.95738ZM22.6834 4.66808C22.6867 4.71605 22.6751 4.8174 22.5825 4.97582L24.3096 5.98439C24.5441 5.58281 24.7164 5.08416 24.6788 4.53213L22.6834 4.66808ZM23.1278 2.99675C22.8275 3.4607 22.6503 4.03723 22.6825 4.65244L24.6798 4.54777C24.6711 4.38298 24.7187 4.21951 24.8068 4.08347L23.1278 2.99675ZM25.7493 1.50047C24.6662 1.5295 23.6693 2.10822 23.1135 3.01942L24.821 4.06079C25.0216 3.732 25.394 3.51071 25.8029 3.49975L25.7493 1.50047ZM27.2171 1.50011H25.7761V3.50011H27.2171V1.50011ZM29.8899 3.01942C29.3435 2.12337 28.3467 1.50011 27.2171 1.50011V3.50011C27.6 3.50011 27.9727 3.71684 28.1824 4.06079L29.8899 3.01942ZM30.309 4.67848C30.36 4.03034 30.1552 3.45204 29.8887 3.01738L28.1837 4.06284C28.2851 4.22818 28.3256 4.38987 28.3152 4.52174L30.309 4.67848ZM30.4107 4.97582C30.3182 4.8174 30.3065 4.71605 30.3098 4.66808L28.3144 4.53213C28.2768 5.08416 28.4491 5.58281 28.6836 5.98439L30.4107 4.97582ZM31.6516 5.2879C31.2178 5.51948 30.6435 5.35507 30.3997 4.95738L28.6947 6.00284C29.4932 7.30514 31.2286 7.78074 32.5934 7.05231L31.6516 5.2879ZM35.8561 6.42298C34.9978 4.96434 33.1158 4.44803 31.6252 5.30255L32.6198 7.03766C33.1527 6.73219 33.8256 6.91588 34.1323 7.43723L35.8561 6.42298ZM36.5438 7.60822L35.8591 6.42822L34.1293 7.432L34.814 8.612L36.5438 7.60822ZM35.4098 11.8134C36.9295 10.9658 37.4166 9.06572 36.5369 7.59642L34.8209 8.6238C35.1267 9.1345 34.9597 9.7744 34.4356 10.0668L35.4098 11.8134ZM35.1238 12.9218C34.9026 12.5569 35.0229 12.0409 35.429 11.8025L34.4164 10.0777C33.0851 10.8593 32.5922 12.6034 33.4134 13.9584L35.1238 12.9218ZM35.3417 13.1819C35.3101 13.1664 35.2497 13.1298 35.124 12.9221L33.4132 13.9581C33.6145 14.2905 33.922 14.7138 34.4627 14.9784L35.3417 13.1819ZM26.512 14.3301C25.4298 14.3301 24.6096 13.4984 24.6096 12.5101H22.6096C22.6096 14.6618 24.3851 16.3301 26.512 16.3301V14.3301ZM28.3837 12.5101C28.3837 13.5121 27.58 14.3301 26.512 14.3301V16.3301C28.6528 16.3301 30.3837 14.6482 30.3837 12.5101H28.3837ZM26.512 10.6801C27.5754 10.6801 28.3837 11.5036 28.3837 12.5101H30.3837C30.3837 10.3766 28.6575 8.68011 26.512 8.68011V10.6801ZM24.6096 12.5101C24.6096 11.5173 25.4345 10.6801 26.512 10.6801V8.68011C24.3804 8.68011 22.6096 10.3629 22.6096 12.5101H24.6096Z" fill="#14173C" mask="url(#path-1-outside-1_43_2208)"/>
<path d="M5.33603 32.164C5.33603 33.412 6.06803 34.228 7.48403 34.552L8.91203 34.876C9.74003 35.068 10.112 35.5 10.112 36.184C10.112 37.048 9.38003 37.588 8.22803 37.588C7.13603 37.588 6.44003 37.06 6.41603 36.232H5.21603C5.28803 37.72 6.46403 38.644 8.22803 38.644C10.076 38.644 11.288 37.648 11.288 36.088C11.288 34.864 10.568 34.096 9.15203 33.772L7.72403 33.436C6.90803 33.244 6.51203 32.824 6.51203 32.128C6.51203 31.276 7.22003 30.724 8.31203 30.724C9.28403 30.724 9.89603 31.228 9.95603 32.092H11.144C11.048 30.592 9.98003 29.668 8.32403 29.668C6.53603 29.668 5.33603 30.676 5.33603 32.164ZM15.1058 38.644C16.5578 38.644 17.5418 37.936 17.8298 36.676H16.7738C16.5818 37.348 16.0058 37.708 15.1298 37.708C14.0138 37.708 13.3658 37.024 13.2818 35.788L17.8178 35.776V35.356C17.8178 33.616 16.7258 32.464 15.0578 32.464C13.3538 32.464 12.1898 33.736 12.1898 35.572C12.1898 37.396 13.3778 38.644 15.1058 38.644ZM15.0578 33.412C16.0538 33.412 16.6898 34.06 16.6898 35.032H13.3058C13.4498 34 14.0738 33.412 15.0578 33.412ZM20.6751 38.5V33.58H21.8271V32.632H20.6751V30.796H19.5471V32.632H18.3951V33.58H19.5471V38.5H20.6751ZM24.6009 38.5V33.58H25.7529V32.632H24.6009V30.796H23.4729V32.632H22.3209V33.58H23.4729V38.5H24.6009ZM27.3172 31.24C27.7252 31.24 28.0612 30.904 28.0612 30.496C28.0612 30.076 27.7252 29.752 27.3172 29.752C26.9092 29.752 26.5732 30.076 26.5732 30.496C26.5732 30.904 26.9092 31.24 27.3172 31.24ZM26.7652 38.5H27.8932V32.632H26.7652V38.5ZM30.6588 38.5V35.392C30.6588 34.252 31.2708 33.496 32.3268 33.496C33.1908 33.496 33.7428 33.976 33.7428 35.164V38.5H34.8708V34.912C34.8708 33.412 34.1628 32.464 32.6148 32.464C31.7868 32.464 31.0428 32.86 30.6708 33.532L30.5508 32.632H29.5308V38.5H30.6588ZM36.0612 35.416C36.0612 37.06 37.1172 38.344 38.7852 38.344C39.7092 38.344 40.4772 37.936 40.8612 37.252V38.428C40.8612 39.544 40.1412 40.264 39.0372 40.264C38.0532 40.264 37.4052 39.76 37.2612 38.896H36.1332C36.3492 40.384 37.4412 41.284 39.0372 41.284C40.8372 41.284 41.9772 40.108 41.9772 38.26V32.632H40.9692L40.8852 33.628C40.5132 32.896 39.7812 32.464 38.8332 32.464C37.1292 32.464 36.0612 33.76 36.0612 35.416ZM37.1892 35.392C37.1892 34.312 37.8612 33.448 38.9892 33.448C40.1412 33.448 40.8132 34.264 40.8132 35.392C40.8132 36.544 40.1172 37.36 38.9772 37.36C37.8732 37.36 37.1892 36.496 37.1892 35.392ZM43.1251 36.796C43.1251 37.912 44.0011 38.644 45.3811 38.644C46.7731 38.644 47.7331 37.936 47.7331 36.82C47.7331 35.944 47.2411 35.488 46.2451 35.248L45.2131 34.996C44.6371 34.852 44.3491 34.588 44.3491 34.192C44.3491 33.652 44.7451 33.34 45.4531 33.34C46.1371 33.34 46.5331 33.712 46.5571 34.3H47.6371C47.6131 33.184 46.7731 32.464 45.4891 32.464C44.1931 32.464 43.2811 33.148 43.2811 34.228C43.2811 35.092 43.7731 35.608 44.8171 35.86L45.8491 36.1C46.4611 36.256 46.6531 36.496 46.6531 36.892C46.6531 37.432 46.1971 37.756 45.4051 37.756C44.6611 37.756 44.2051 37.396 44.2051 36.796H43.1251Z" fill="white"/>
<defs>
<linearGradient id="paint0_linear_43_2208" x1="23.0799" y1="1.70001" x2="36.0626" y2="26.367" gradientUnits="userSpaceOnUse">
<stop stop-color="white"/>
<stop offset="0.2" stop-color="#D6D6D6"/>
<stop offset="0.4" stop-color="white"/>
<stop offset="0.6" stop-color="#EBEBEB"/>
<stop offset="0.8" stop-color="#DBDBDB"/>
<stop offset="1" stop-color="#F9F9F9"/>
</linearGradient>
</defs>
</svg>
